<svg xmlns="http://www.w3.org/2000/svg" viewBox="0 0 470 470" ><path d="M401.183 68.816C356.805 24.44 297.787 0 235 0S113.195 24.44 68.818 68.816C24.44 113.193 0 172.211 0 235c0 62.787 24.44 121.805 68.817 166.183C113.195 445.56 172.213 470 235 470s121.805-24.44 166.183-68.817C445.56 356.805 470 297.787 470 235c0-62.789-24.44-121.807-68.817-166.184zM387.04 387.04C346.44 427.641 292.444 450 235 450c-57.444 0-111.44-22.359-152.04-62.96C42.359 346.44 20 292.444 20 235c0-57.446 22.359-111.442 62.959-152.042C123.56 42.359 177.555 20 235 20s111.44 22.359 152.04 62.958C427.641 123.558 450 177.554 450 235c0 57.444-22.359 111.44-62.96 152.04z"/><path d="M345 180h-29.966a2.932 2.932 0 0 1-.034-.218V145c0-18.518-10.255-32.704-28.876-39.945C273.273 100.058 260.536 100 260 100h-50c-55.14 0-100 44.86-100 100v70c0 55.14 44.86 100 100 100h50c55.141 0 100-44.86 100-100v-75c0-9.743-7.728-15-15-15zm-5 90c0 44.112-35.888 80-80 80h-50c-44.112 0-80-35.888-80-80v-70c0-44.112 35.888-80 80-80h49.971c.099.001 9.946.102 19.317 3.858C293.371 129.502 295 138.627 295 145v35c0 9.695 7.01 20 20 20h25v70z"/><path d="M190 210h55c13.785 0 25-11.215 25-25s-11.215-25-25-25h-55c-13.785 0-25 11.215-25 25s11.215 25 25 25zm0-30h55c2.757 0 5 2.243 5 5s-2.243 5-5 5h-55c-2.757 0-5-2.243-5-5s2.243-5 5-5zM285 250H185c-13.785 0-25 11.215-25 25s11.215 25 25 25h100c13.785 0 25-11.215 25-25s-11.215-25-25-25zm0 30H185c-2.757 0-5-2.243-5-5s2.243-5 5-5h100c2.757 0 5 2.243 5 5s-2.243 5-5 5z"/></svg>