<svg xmlns="http://www.w3.org/2000/svg" viewBox="0 0 330 330"><path
    d="M165 80c-46.867 0-84.996 38.131-84.996 85.001C80.004 211.87 118.133 250 165 250c46.871 0 85.004-38.13 85.004-84.999C250.004 118.131 211.871 80 165 80zM165 50c8.284 0 15-6.716 15-15V15c0-8.284-6.716-15-15-15-8.284 0-15 6.716-15 15v20c0 8.284 6.716 15 15 15zM165 280c-8.284 0-15 6.716-15 15v20c0 8.284 6.716 15 15 15 8.284 0 15-6.716 15-15v-20c0-8.284-6.716-15-15-15zM315 150h-20c-8.284 0-15 6.716-15 15s6.716 15 15 15h20c8.284 0 15-6.716 15-15s-6.716-15-15-15zM49.999 165c0-8.284-6.716-15-15-15H15c-8.284 0-15 6.716-15 15s6.716 15 15 15h19.999c8.284 0 15-6.716 15-15zM256.924 88.076c3.839 0 7.678-1.465 10.607-4.394l14.142-14.143c5.858-5.858 5.857-15.356 0-21.213-5.858-5.857-15.356-5.857-21.213 0L246.317 62.47c-5.858 5.858-5.857 15.356.001 21.213a14.95 14.95 0 0 0 10.606 4.393zM62.47 246.317l-14.143 14.142c-5.858 5.857-5.858 15.355 0 21.213a14.951 14.951 0 0 0 10.607 4.393 14.95 14.95 0 0 0 10.606-4.393l14.143-14.142c5.858-5.857 5.858-15.355.001-21.213-5.859-5.857-15.356-5.859-21.214 0zM267.53 246.317c-5.857-5.858-15.355-5.858-21.213 0-5.858 5.858-5.858 15.355 0 21.213l14.142 14.142a14.953 14.953 0 0 0 10.606 4.393c3.839 0 7.678-1.464 10.607-4.393 5.858-5.858 5.858-15.355 0-21.213l-14.142-14.142zM62.469 83.683c2.929 2.929 6.768 4.394 10.606 4.394s7.678-1.464 10.606-4.394c5.858-5.858 5.858-15.355 0-21.213L69.54 48.328c-5.857-5.858-15.355-5.858-21.213 0-5.858 5.858-5.858 15.355 0 21.213l14.142 14.142z"
  /></svg>
